w1b400r100.ufo
<glyph name="_25" format="2">
  <advance width="1"/>
  <unicode hex="0119"/>
  
  <outline>
    <component base="cap" xOffset="0" yOffset="0" />
    <component base="cap" xOffset="0" yOffset="-150" />
    <contour>
      <point x="0" y="200" type="line"/>
      <point x="0" y="50" type="line"/>
      <point x="400" y="50" type="line"/>
      <point x="400" y="200" type="line"/>
    </contour>
  </outline>
</glyph>
<glyph name="_30" format="2">
  <advance width="1"/>
  <unicode hex="011E"/>
  <unicode hex="0033"/><unicode hex="0070"/>
  <outline>
    <component base="cap" xOffset="0" yOffset="0" />
    <component base="cap" xOffset="0" yOffset="-100" />
    <contour>
      <point x="0" y="200" type="line"/>
      <point x="0" y="100" type="line"/>
      <point x="400" y="100" type="line"/>
      <point x="400" y="200" type="line"/>
    </contour>
  </outline>
</glyph>
<glyph name="_62" format="2">
  <advance width="1"/>
  <unicode hex="013E"/>
  <unicode hex="0046"/>
  <outline>
    <component base="cap" xOffset="0" yOffset="0" />
    <component base="cap" xOffset="0" yOffset="220" />
    <contour>
      <point x="0" y="200" type="line"/>
      <point x="0" y="420" type="line"/>
      <point x="400" y="420" type="line"/>
      <point x="400" y="200" type="line"/>
    </contour>
  </outline>
</glyph>
<glyph name="_85" format="2">
  <advance width="1"/>
  <unicode hex="0155"/>
  
  <outline>
    <component base="cap" xOffset="0" yOffset="0" />
    <component base="cap" xOffset="0" yOffset="450" />
    <contour>
      <point x="0" y="200" type="line"/>
      <point x="0" y="650" type="line"/>
      <point x="400" y="650" type="line"/>
      <point x="400" y="200" type="line"/>
    </contour>
  </outline>
</glyph>
<glyph name="_91" format="2">
  <advance width="1"/>
  <unicode hex="015B"/>
  
  <outline>
    <component base="cap" xOffset="0" yOffset="0" />
    <component base="cap" xOffset="0" yOffset="510" />
    <contour>
      <point x="0" y="200" type="line"/>
      <point x="0" y="710" type="line"/>
      <point x="400" y="710" type="line"/>
      <point x="400" y="200" type="line"/>
    </contour>
  </outline>
</glyph>
<glyph name="_9.center" format="2">
  <advance width="1"/>
  <unicode hex="0409"/>
  
  <outline>
    <component base="cap" xOffset="0" yOffset="455" />
    <component base="cap" xOffset="0" yOffset="145" />
    <contour>
      <point x="0" y="655" type="line"/>
      <point x="0" y="345" type="line"/>
      <point x="400" y="345" type="line"/>
      <point x="400" y="655" type="line"/>
    </contour>
  </outline>
</glyph>
<glyph name="_10.center" format="2">
  <advance width="1"/>
  <unicode hex="040A"/>
  
  <outline>
    <component base="cap" xOffset="0" yOffset="450" />
    <component base="cap" xOffset="0" yOffset="150" />
    <contour>
      <point x="0" y="650" type="line"/>
      <point x="0" y="350" type="line"/>
      <point x="400" y="350" type="line"/>
      <point x="400" y="650" type="line"/>
    </contour>
  </outline>
</glyph>
<glyph name="_61.center" format="2">
  <advance width="1"/>
  <unicode hex="043D"/>
  
  <outline>
    <component base="cap" xOffset="0" yOffset="195" />
    <component base="cap" xOffset="0" yOffset="405" />
    <contour>
      <point x="0" y="395" type="line"/>
      <point x="0" y="605" type="line"/>
      <point x="400" y="605" type="line"/>
      <point x="400" y="395" type="line"/>
    </contour>
  </outline>
</glyph>
<glyph name="_68.center" format="2">
  <advance width="1"/>
  <unicode hex="0444"/>
  
  <outline>
    <component base="cap" xOffset="0" yOffset="160" />
    <component base="cap" xOffset="0" yOffset="440" />
    <contour>
      <point x="0" y="360" type="line"/>
      <point x="0" y="640" type="line"/>
      <point x="400" y="640" type="line"/>
      <point x="400" y="360" type="line"/>
    </contour>
  </outline>
</glyph>
<glyph name="_98.center" format="2">
  <advance width="1"/>
  <unicode hex="0462"/>
  
  <outline>
    <component base="cap" xOffset="0" yOffset="10" />
    <component base="cap" xOffset="0" yOffset="590" />
    <contour>
      <point x="0" y="210" type="line"/>
      <point x="0" y="790" type="line"/>
      <point x="400" y="790" type="line"/>
      <point x="400" y="210" type="line"/>
    </contour>
  </outline>
</glyph>
<glyph name="_12.clip" format="2">
  <advance width="1"/>
  
  <outline>
    <contour>
        <point x="0.000" y="93.000"/>

        <point x="27.000" y="120.000"/>
        <point x="60.000" y="120.000" type="curve" smooth="yes"/>
        <point x="340.000" y="120.000" type="line"/>
        <point x="373.000" y="120.000"/>

        <point x="400.000" y="93.000"/>
        <point x="400.000" y="60.000" type="curve" smooth="yes"/>
        <point x="400.000" y="60.000" type="line"/>
        <point x="400.000" y="27.000"/>

        <point x="373.000" y="0.000"/>
        <point x="340.000" y="0.000" type="curve" smooth="yes"/>
        <point x="60.000" y="0.000" type="line"/>
        <point x="27.000" y="0.000"/>

        <point x="0.000" y="27.000"/>
        <point x="0.000" y="60.000" type="curve" smooth="yes"/>
        <point x="0.000" y="60.000" type="line"/>
    </contour>
  </outline>
</glyph>
<glyph name="_13.clip.center" format="2">
  <advance width="1"/>
  
  <outline>
    <contour>
        <point x="0.000" y="535.750"/>

        <point x="29.250" y="565.000"/>
        <point x="65.000" y="565.000" type="curve" smooth="yes"/>
        <point x="335.000" y="565.000" type="line"/>
        <point x="370.750" y="565.000"/>

        <point x="400.000" y="535.750"/>
        <point x="400.000" y="500.000" type="curve" smooth="yes"/>
        <point x="400.000" y="500.000" type="line"/>
        <point x="400.000" y="464.250"/>

        <point x="370.750" y="435.000"/>
        <point x="335.000" y="435.000" type="curve" smooth="yes"/>
        <point x="65.000" y="435.000" type="line"/>
        <point x="29.250" y="435.000"/>

        <point x="0.000" y="464.250"/>
        <point x="0.000" y="500.000" type="curve" smooth="yes"/>
        <point x="0.000" y="500.000" type="line"/>
    </contour>
  </outline>
</glyph>
<glyph name="_18.clip.center" format="2">
  <advance width="1"/>
  
  <outline>
    <contour>
        <point x="0.000" y="549.500"/>

        <point x="40.500" y="590.000"/>
        <point x="90.000" y="590.000" type="curve" smooth="yes"/>
        <point x="310.000" y="590.000" type="line"/>
        <point x="359.500" y="590.000"/>

        <point x="400.000" y="549.500"/>
        <point x="400.000" y="500.000" type="curve" smooth="yes"/>
        <point x="400.000" y="500.000" type="line"/>
        <point x="400.000" y="450.500"/>

        <point x="359.500" y="410.000"/>
        <point x="310.000" y="410.000" type="curve" smooth="yes"/>
        <point x="90.000" y="410.000" type="line"/>
        <point x="40.500" y="410.000"/>

        <point x="0.000" y="450.500"/>
        <point x="0.000" y="500.000" type="curve" smooth="yes"/>
        <point x="0.000" y="500.000" type="line"/>
    </contour>
  </outline>
</glyph>
<glyph name="_3.clip.center" format="2">
  <advance width="1"/>
  
  <outline>
    <contour>
        <point x="0.000" y="508.250"/>

        <point x="6.750" y="515.000"/>
        <point x="15.000" y="515.000" type="curve" smooth="yes"/>
        <point x="385.000" y="515.000" type="line"/>
        <point x="393.250" y="515.000"/>

        <point x="400.000" y="508.250"/>
        <point x="400.000" y="500.000" type="curve" smooth="yes"/>
        <point x="400.000" y="500.000" type="line"/>
        <point x="400.000" y="491.750"/>

        <point x="393.250" y="485.000"/>
        <point x="385.000" y="485.000" type="curve" smooth="yes"/>
        <point x="15.000" y="485.000" type="line"/>
        <point x="6.750" y="485.000"/>

        <point x="0.000" y="491.750"/>
        <point x="0.000" y="500.000" type="curve" smooth="yes"/>
        <point x="0.000" y="500.000" type="line"/>
    </contour>
  </outline>
</glyph>
<glyph name="_32.clip" format="2">
  <advance width="1"/>
  
  <outline>
    <contour>
        <point x="0.000" y="248.000"/>

        <point x="72.000" y="320.000"/>
        <point x="160.000" y="320.000" type="curve" smooth="yes"/>
        <point x="240.000" y="320.000" type="line"/>
        <point x="328.000" y="320.000"/>

        <point x="400.000" y="248.000"/>
        <point x="400.000" y="160.000" type="curve" smooth="yes"/>
        <point x="400.000" y="160.000" type="line"/>
        <point x="400.000" y="72.000"/>

        <point x="328.000" y="0.000"/>
        <point x="240.000" y="0.000" type="curve" smooth="yes"/>
        <point x="160.000" y="0.000" type="line"/>
        <point x="72.000" y="0.000"/>

        <point x="0.000" y="72.000"/>
        <point x="0.000" y="160.000" type="curve" smooth="yes"/>
        <point x="0.000" y="160.000" type="line"/>
    </contour>
  </outline>
</glyph>
<glyph name="_36.clip.center" format="2">
  <advance width="1"/>
  
  <outline>
    <contour>
        <point x="0.000" y="599.000"/>

        <point x="81.000" y="680.000"/>
        <point x="180.000" y="680.000" type="curve" smooth="yes"/>
        <point x="220.000" y="680.000" type="line"/>
        <point x="319.000" y="680.000"/>

        <point x="400.000" y="599.000"/>
        <point x="400.000" y="500.000" type="curve" smooth="yes"/>
        <point x="400.000" y="500.000" type="line"/>
        <point x="400.000" y="401.000"/>

        <point x="319.000" y="320.000"/>
        <point x="220.000" y="320.000" type="curve" smooth="yes"/>
        <point x="180.000" y="320.000" type="line"/>
        <point x="81.000" y="320.000"/>

        <point x="0.000" y="401.000"/>
        <point x="0.000" y="500.000" type="curve" smooth="yes"/>
        <point x="0.000" y="500.000" type="line"/>
    </contour>
  </outline>
</glyph>
<glyph name="_4.clip" format="2">
  <advance width="1"/>
  
  <outline>
    <contour>
        <point x="0.000" y="31.000"/>

        <point x="9.000" y="40.000"/>
        <point x="20.000" y="40.000" type="curve" smooth="yes"/>
        <point x="380.000" y="40.000" type="line"/>
        <point x="391.000" y="40.000"/>

        <point x="400.000" y="31.000"/>
        <point x="400.000" y="20.000" type="curve" smooth="yes"/>
        <point x="400.000" y="20.000" type="line"/>
        <point x="400.000" y="9.000"/>

        <point x="391.000" y="0.000"/>
        <point x="380.000" y="0.000" type="curve" smooth="yes"/>
        <point x="20.000" y="0.000" type="line"/>
        <point x="9.000" y="0.000"/>

        <point x="0.000" y="9.000"/>
        <point x="0.000" y="20.000" type="curve" smooth="yes"/>
        <point x="0.000" y="20.000" type="line"/>
    </contour>
  </outline>
</glyph>
<glyph name="_46.clip.center" format="2">
  <advance width="1"/>
  
  <outline>
    <contour>
        <point x="0.000" y="626.500"/>

        <point x="103.500" y="730.000"/>
        <point x="230.000" y="730.000" type="curve" smooth="yes"/>
        <point x="170.000" y="730.000" type="line"/>
        <point x="296.500" y="730.000"/>

        <point x="400.000" y="626.500"/>
        <point x="400.000" y="500.000" type="curve" smooth="yes"/>
        <point x="400.000" y="500.000" type="line"/>
        <point x="400.000" y="373.500"/>

        <point x="296.500" y="270.000"/>
        <point x="170.000" y="270.000" type="curve" smooth="yes"/>
        <point x="230.000" y="270.000" type="line"/>
        <point x="103.500" y="270.000"/>

        <point x="0.000" y="373.500"/>
        <point x="0.000" y="500.000" type="curve" smooth="yes"/>
        <point x="0.000" y="500.000" type="line"/>
    </contour>
  </outline>
</glyph>
<glyph name="_48.clip.center" format="2">
  <advance width="1"/>
  
  <outline>
    <contour>
        <point x="0.000" y="632.000"/>

        <point x="108.000" y="740.000"/>
        <point x="240.000" y="740.000" type="curve" smooth="yes"/>
        <point x="160.000" y="740.000" type="line"/>
        <point x="292.000" y="740.000"/>

        <point x="400.000" y="632.000"/>
        <point x="400.000" y="500.000" type="curve" smooth="yes"/>
        <point x="400.000" y="500.000" type="line"/>
        <point x="400.000" y="368.000"/>

        <point x="292.000" y="260.000"/>
        <point x="160.000" y="260.000" type="curve" smooth="yes"/>
        <point x="240.000" y="260.000" type="line"/>
        <point x="108.000" y="260.000"/>

        <point x="0.000" y="368.000"/>
        <point x="0.000" y="500.000" type="curve" smooth="yes"/>
        <point x="0.000" y="500.000" type="line"/>
    </contour>
  </outline>
</glyph>
<glyph name="_51.clip" format="2">
  <advance width="1"/>
  
  <outline>
    <contour>
        <point x="0.000" y="395.250"/>

        <point x="114.750" y="510.000"/>
        <point x="255.000" y="510.000" type="curve" smooth="yes"/>
        <point x="145.000" y="510.000" type="line"/>
        <point x="285.250" y="510.000"/>

        <point x="400.000" y="395.250"/>
        <point x="400.000" y="255.000" type="curve" smooth="yes"/>
        <point x="400.000" y="255.000" type="line"/>
        <point x="400.000" y="114.750"/>

        <point x="285.250" y="0.000"/>
        <point x="145.000" y="0.000" type="curve" smooth="yes"/>
        <point x="255.000" y="0.000" type="line"/>
        <point x="114.750" y="0.000"/>

        <point x="0.000" y="114.750"/>
        <point x="0.000" y="255.000" type="curve" smooth="yes"/>
        <point x="0.000" y="255.000" type="line"/>
    </contour>
  </outline>
</glyph>
<glyph name="_6.clip" format="2">
  <advance width="1"/>
  
  <outline>
    <contour>
        <point x="0.000" y="46.500"/>

        <point x="13.500" y="60.000"/>
        <point x="30.000" y="60.000" type="curve" smooth="yes"/>
        <point x="370.000" y="60.000" type="line"/>
        <point x="386.500" y="60.000"/>

        <point x="400.000" y="46.500"/>
        <point x="400.000" y="30.000" type="curve" smooth="yes"/>
        <point x="400.000" y="30.000" type="line"/>
        <point x="400.000" y="13.500"/>

        <point x="386.500" y="0.000"/>
        <point x="370.000" y="0.000" type="curve" smooth="yes"/>
        <point x="30.000" y="0.000" type="line"/>
        <point x="13.500" y="0.000"/>

        <point x="0.000" y="13.500"/>
        <point x="0.000" y="30.000" type="curve" smooth="yes"/>
        <point x="0.000" y="30.000" type="line"/>
    </contour>
  </outline>
</glyph>
<glyph name="_65.clip" format="2">
  <advance width="1"/>
  
  <outline>
    <contour>
        <point x="0.000" y="503.750"/>

        <point x="146.250" y="650.000"/>
        <point x="325.000" y="650.000" type="curve" smooth="yes"/>
        <point x="75.000" y="650.000" type="line"/>
        <point x="253.750" y="650.000"/>

        <point x="400.000" y="503.750"/>
        <point x="400.000" y="325.000" type="curve" smooth="yes"/>
        <point x="400.000" y="325.000" type="line"/>
        <point x="400.000" y="146.250"/>

        <point x="253.750" y="0.000"/>
        <point x="75.000" y="0.000" type="curve" smooth="yes"/>
        <point x="325.000" y="0.000" type="line"/>
        <point x="146.250" y="0.000"/>

        <point x="0.000" y="146.250"/>
        <point x="0.000" y="325.000" type="curve" smooth="yes"/>
        <point x="0.000" y="325.000" type="line"/>
    </contour>
  </outline>
</glyph>
<glyph name="_68.clip" format="2">
  <advance width="1"/>
  
  <outline>
    <contour>
        <point x="0.000" y="527.000"/>

        <point x="153.000" y="680.000"/>
        <point x="340.000" y="680.000" type="curve" smooth="yes"/>
        <point x="60.000" y="680.000" type="line"/>
        <point x="247.000" y="680.000"/>

        <point x="400.000" y="527.000"/>
        <point x="400.000" y="340.000" type="curve" smooth="yes"/>
        <point x="400.000" y="340.000" type="line"/>
        <point x="400.000" y="153.000"/>

        <point x="247.000" y="0.000"/>
        <point x="60.000" y="0.000" type="curve" smooth="yes"/>
        <point x="340.000" y="0.000" type="line"/>
        <point x="153.000" y="0.000"/>

        <point x="0.000" y="153.000"/>
        <point x="0.000" y="340.000" type="curve" smooth="yes"/>
        <point x="0.000" y="340.000" type="line"/>
    </contour>
  </outline>
</glyph>
<glyph name="_71.clip" format="2">
  <advance width="1"/>
  
  <outline>
    <contour>
        <point x="0.000" y="550.250"/>

        <point x="159.750" y="710.000"/>
        <point x="355.000" y="710.000" type="curve" smooth="yes"/>
        <point x="45.000" y="710.000" type="line"/>
        <point x="240.250" y="710.000"/>

        <point x="400.000" y="550.250"/>
        <point x="400.000" y="355.000" type="curve" smooth="yes"/>
        <point x="400.000" y="355.000" type="line"/>
        <point x="400.000" y="159.750"/>

        <point x="240.250" y="0.000"/>
        <point x="45.000" y="0.000" type="curve" smooth="yes"/>
        <point x="355.000" y="0.000" type="line"/>
        <point x="159.750" y="0.000"/>

        <point x="0.000" y="159.750"/>
        <point x="0.000" y="355.000" type="curve" smooth="yes"/>
        <point x="0.000" y="355.000" type="line"/>
    </contour>
  </outline>
</glyph>
<glyph name="_73.clip" format="2">
  <advance width="1"/>
  
  <outline>
    <contour>
        <point x="0.000" y="565.750"/>

        <point x="164.250" y="730.000"/>
        <point x="365.000" y="730.000" type="curve" smooth="yes"/>
        <point x="35.000" y="730.000" type="line"/>
        <point x="235.750" y="730.000"/>

        <point x="400.000" y="565.750"/>
        <point x="400.000" y="365.000" type="curve" smooth="yes"/>
        <point x="400.000" y="365.000" type="line"/>
        <point x="400.000" y="164.250"/>

        <point x="235.750" y="0.000"/>
        <point x="35.000" y="0.000" type="curve" smooth="yes"/>
        <point x="365.000" y="0.000" type="line"/>
        <point x="164.250" y="0.000"/>

        <point x="0.000" y="164.250"/>
        <point x="0.000" y="365.000" type="curve" smooth="yes"/>
        <point x="0.000" y="365.000" type="line"/>
    </contour>
  </outline>
</glyph>
<glyph name="_74.clip" format="2">
  <advance width="1"/>
  
  <outline>
    <contour>
        <point x="0.000" y="573.500"/>

        <point x="166.500" y="740.000"/>
        <point x="370.000" y="740.000" type="curve" smooth="yes"/>
        <point x="30.000" y="740.000" type="line"/>
        <point x="233.500" y="740.000"/>

        <point x="400.000" y="573.500"/>
        <point x="400.000" y="370.000" type="curve" smooth="yes"/>
        <point x="400.000" y="370.000" type="line"/>
        <point x="400.000" y="166.500"/>

        <point x="233.500" y="0.000"/>
        <point x="30.000" y="0.000" type="curve" smooth="yes"/>
        <point x="370.000" y="0.000" type="line"/>
        <point x="166.500" y="0.000"/>

        <point x="0.000" y="166.500"/>
        <point x="0.000" y="370.000" type="curve" smooth="yes"/>
        <point x="0.000" y="370.000" type="line"/>
    </contour>
  </outline>
</glyph>
<glyph name="_80.clip.center" format="2">
  <advance width="1"/>
  
  <outline>
    <contour>
        <point x="0.000" y="720.000"/>

        <point x="180.000" y="900.000"/>
        <point x="400.000" y="900.000" type="curve" smooth="yes"/>
        <point x="0.000" y="900.000" type="line"/>
        <point x="220.000" y="900.000"/>

        <point x="400.000" y="720.000"/>
        <point x="400.000" y="500.000" type="curve" smooth="yes"/>
        <point x="400.000" y="500.000" type="line"/>
        <point x="400.000" y="280.000"/>

        <point x="220.000" y="100.000"/>
        <point x="0.000" y="100.000" type="curve" smooth="yes"/>
        <point x="400.000" y="100.000" type="line"/>
        <point x="180.000" y="100.000"/>

        <point x="0.000" y="280.000"/>
        <point x="0.000" y="500.000" type="curve" smooth="yes"/>
        <point x="0.000" y="500.000" type="line"/>
    </contour>
  </outline>
</glyph>
<glyph name="_81.clip.center" format="2">
  <advance width="1"/>
  
  <outline>
    <contour>
        <point x="0.000" y="722.750"/>

        <point x="182.250" y="905.000"/>
        <point x="405.000" y="905.000" type="curve" smooth="yes"/>
        <point x="-5.000" y="905.000" type="line"/>
        <point x="217.750" y="905.000"/>

        <point x="400.000" y="722.750"/>
        <point x="400.000" y="500.000" type="curve" smooth="yes"/>
        <point x="400.000" y="500.000" type="line"/>
        <point x="400.000" y="277.250"/>

        <point x="217.750" y="95.000"/>
        <point x="-5.000" y="95.000" type="curve" smooth="yes"/>
        <point x="405.000" y="95.000" type="line"/>
        <point x="182.250" y="95.000"/>

        <point x="0.000" y="277.250"/>
        <point x="0.000" y="500.000" type="curve" smooth="yes"/>
        <point x="0.000" y="500.000" type="line"/>
    </contour>
  </outline>
</glyph>
<glyph name="_81.clip" format="2">
  <advance width="1"/>
  
  <outline>
    <contour>
        <point x="0.000" y="627.750"/>

        <point x="182.250" y="810.000"/>
        <point x="405.000" y="810.000" type="curve" smooth="yes"/>
        <point x="-5.000" y="810.000" type="line"/>
        <point x="217.750" y="810.000"/>

        <point x="400.000" y="627.750"/>
        <point x="400.000" y="405.000" type="curve" smooth="yes"/>
        <point x="400.000" y="405.000" type="line"/>
        <point x="400.000" y="182.250"/>

        <point x="217.750" y="0.000"/>
        <point x="-5.000" y="0.000" type="curve" smooth="yes"/>
        <point x="405.000" y="0.000" type="line"/>
        <point x="182.250" y="0.000"/>

        <point x="0.000" y="182.250"/>
        <point x="0.000" y="405.000" type="curve" smooth="yes"/>
        <point x="0.000" y="405.000" type="line"/>
    </contour>
  </outline>
</glyph>
<glyph name="_85.clip.center" format="2">
  <advance width="1"/>
  
  <outline>
    <contour>
        <point x="0.000" y="733.750"/>

        <point x="191.250" y="925.000"/>
        <point x="425.000" y="925.000" type="curve" smooth="yes"/>
        <point x="-25.000" y="925.000" type="line"/>
        <point x="208.750" y="925.000"/>

        <point x="400.000" y="733.750"/>
        <point x="400.000" y="500.000" type="curve" smooth="yes"/>
        <point x="400.000" y="500.000" type="line"/>
        <point x="400.000" y="266.250"/>

        <point x="208.750" y="75.000"/>
        <point x="-25.000" y="75.000" type="curve" smooth="yes"/>
        <point x="425.000" y="75.000" type="line"/>
        <point x="191.250" y="75.000"/>

        <point x="0.000" y="266.250"/>
        <point x="0.000" y="500.000" type="curve" smooth="yes"/>
        <point x="0.000" y="500.000" type="line"/>
    </contour>
  </outline>
</glyph>
<glyph name="_85.clip" format="2">
  <advance width="1"/>
  
  <outline>
    <contour>
        <point x="0.000" y="658.750"/>

        <point x="191.250" y="850.000"/>
        <point x="425.000" y="850.000" type="curve" smooth="yes"/>
        <point x="-25.000" y="850.000" type="line"/>
        <point x="208.750" y="850.000"/>

        <point x="400.000" y="658.750"/>
        <point x="400.000" y="425.000" type="curve" smooth="yes"/>
        <point x="400.000" y="425.000" type="line"/>
        <point x="400.000" y="191.250"/>

        <point x="208.750" y="0.000"/>
        <point x="-25.000" y="0.000" type="curve" smooth="yes"/>
        <point x="425.000" y="0.000" type="line"/>
        <point x="191.250" y="0.000"/>

        <point x="0.000" y="191.250"/>
        <point x="0.000" y="425.000" type="curve" smooth="yes"/>
        <point x="0.000" y="425.000" type="line"/>
    </contour>
  </outline>
</glyph>
<glyph name="_86.clip" format="2">
  <advance width="1"/>
  
  <outline>
    <contour>
        <point x="0.000" y="666.500"/>

        <point x="193.500" y="860.000"/>
        <point x="430.000" y="860.000" type="curve" smooth="yes"/>
        <point x="-30.000" y="860.000" type="line"/>
        <point x="206.500" y="860.000"/>

        <point x="400.000" y="666.500"/>
        <point x="400.000" y="430.000" type="curve" smooth="yes"/>
        <point x="400.000" y="430.000" type="line"/>
        <point x="400.000" y="193.500"/>

        <point x="206.500" y="0.000"/>
        <point x="-30.000" y="0.000" type="curve" smooth="yes"/>
        <point x="430.000" y="0.000" type="line"/>
        <point x="193.500" y="0.000"/>

        <point x="0.000" y="193.500"/>
        <point x="0.000" y="430.000" type="curve" smooth="yes"/>
        <point x="0.000" y="430.000" type="line"/>
    </contour>
  </outline>
</glyph>
<glyph name="_87.clip" format="2">
  <advance width="1"/>
  
  <outline>
    <contour>
        <point x="0.000" y="674.250"/>

        <point x="195.750" y="870.000"/>
        <point x="435.000" y="870.000" type="curve" smooth="yes"/>
        <point x="-35.000" y="870.000" type="line"/>
        <point x="204.250" y="870.000"/>

        <point x="400.000" y="674.250"/>
        <point x="400.000" y="435.000" type="curve" smooth="yes"/>
        <point x="400.000" y="435.000" type="line"/>
        <point x="400.000" y="195.750"/>

        <point x="204.250" y="0.000"/>
        <point x="-35.000" y="0.000" type="curve" smooth="yes"/>
        <point x="435.000" y="0.000" type="line"/>
        <point x="195.750" y="0.000"/>

        <point x="0.000" y="195.750"/>
        <point x="0.000" y="435.000" type="curve" smooth="yes"/>
        <point x="0.000" y="435.000" type="line"/>
    </contour>
  </outline>
</glyph>
<glyph name="_88.clip.center" format="2">
  <advance width="1"/>
  
  <outline>
    <contour>
        <point x="0.000" y="742.000"/>

        <point x="198.000" y="940.000"/>
        <point x="440.000" y="940.000" type="curve" smooth="yes"/>
        <point x="-40.000" y="940.000" type="line"/>
        <point x="202.000" y="940.000"/>

        <point x="400.000" y="742.000"/>
        <point x="400.000" y="500.000" type="curve" smooth="yes"/>
        <point x="400.000" y="500.000" type="line"/>
        <point x="400.000" y="258.000"/>

        <point x="202.000" y="60.000"/>
        <point x="-40.000" y="60.000" type="curve" smooth="yes"/>
        <point x="440.000" y="60.000" type="line"/>
        <point x="198.000" y="60.000"/>

        <point x="0.000" y="258.000"/>
        <point x="0.000" y="500.000" type="curve" smooth="yes"/>
        <point x="0.000" y="500.000" type="line"/>
    </contour>
  </outline>
</glyph>
<glyph name="_93.clip" format="2">
  <advance width="1"/>
  
  <outline>
    <contour>
        <point x="0.000" y="720.750"/>

        <point x="209.250" y="930.000"/>
        <point x="465.000" y="930.000" type="curve" smooth="yes"/>
        <point x="-65.000" y="930.000" type="line"/>
        <point x="190.750" y="930.000"/>

        <point x="400.000" y="720.750"/>
        <point x="400.000" y="465.000" type="curve" smooth="yes"/>
        <point x="400.000" y="465.000" type="line"/>
        <point x="400.000" y="209.250"/>

        <point x="190.750" y="0.000"/>
        <point x="-65.000" y="0.000" type="curve" smooth="yes"/>
        <point x="465.000" y="0.000" type="line"/>
        <point x="209.250" y="0.000"/>

        <point x="0.000" y="209.250"/>
        <point x="0.000" y="465.000" type="curve" smooth="yes"/>
        <point x="0.000" y="465.000" type="line"/>
    </contour>
  </outline>
</glyph>
<glyph name="_96.clip.center" format="2">
  <advance width="1"/>
  
  <outline>
    <contour>
        <point x="0.000" y="764.000"/>

        <point x="216.000" y="980.000"/>
        <point x="480.000" y="980.000" type="curve" smooth="yes"/>
        <point x="-80.000" y="980.000" type="line"/>
        <point x="184.000" y="980.000"/>

        <point x="400.000" y="764.000"/>
        <point x="400.000" y="500.000" type="curve" smooth="yes"/>
        <point x="400.000" y="500.000" type="line"/>
        <point x="400.000" y="236.000"/>

        <point x="184.000" y="20.000"/>
        <point x="-80.000" y="20.000" type="curve" smooth="yes"/>
        <point x="480.000" y="20.000" type="line"/>
        <point x="216.000" y="20.000"/>

        <point x="0.000" y="236.000"/>
        <point x="0.000" y="500.000" type="curve" smooth="yes"/>
        <point x="0.000" y="500.000" type="line"/>
    </contour>
  </outline>
</glyph>
<glyph name="_97.clip.center" format="2">
  <advance width="1"/>
  
  <outline>
    <contour>
        <point x="0.000" y="766.750"/>

        <point x="218.250" y="985.000"/>
        <point x="485.000" y="985.000" type="curve" smooth="yes"/>
        <point x="-85.000" y="985.000" type="line"/>
        <point x="181.750" y="985.000"/>

        <point x="400.000" y="766.750"/>
        <point x="400.000" y="500.000" type="curve" smooth="yes"/>
        <point x="400.000" y="500.000" type="line"/>
        <point x="400.000" y="233.250"/>

        <point x="181.750" y="15.000"/>
        <point x="-85.000" y="15.000" type="curve" smooth="yes"/>
        <point x="485.000" y="15.000" type="line"/>
        <point x="218.250" y="15.000"/>

        <point x="0.000" y="233.250"/>
        <point x="0.000" y="500.000" type="curve" smooth="yes"/>
        <point x="0.000" y="500.000" type="line"/>
    </contour>
  </outline>
</glyph>
<glyph name="_97.clip" format="2">
  <advance width="1"/>
  
  <outline>
    <contour>
        <point x="0.000" y="751.750"/>

        <point x="218.250" y="970.000"/>
        <point x="485.000" y="970.000" type="curve" smooth="yes"/>
        <point x="-85.000" y="970.000" type="line"/>
        <point x="181.750" y="970.000"/>

        <point x="400.000" y="751.750"/>
        <point x="400.000" y="485.000" type="curve" smooth="yes"/>
        <point x="400.000" y="485.000" type="line"/>
        <point x="400.000" y="218.250"/>

        <point x="181.750" y="0.000"/>
        <point x="-85.000" y="0.000" type="curve" smooth="yes"/>
        <point x="485.000" y="0.000" type="line"/>
        <point x="218.250" y="0.000"/>

        <point x="0.000" y="218.250"/>
        <point x="0.000" y="485.000" type="curve" smooth="yes"/>
        <point x="0.000" y="485.000" type="line"/>
    </contour>
  </outline>
</glyph>
<glyph name="_98.clip.center" format="2">
  <advance width="1"/>
  
  <outline>
    <contour>
        <point x="0.000" y="769.500"/>

        <point x="220.500" y="990.000"/>
        <point x="490.000" y="990.000" type="curve" smooth="yes"/>
        <point x="-90.000" y="990.000" type="line"/>
        <point x="179.500" y="990.000"/>

        <point x="400.000" y="769.500"/>
        <point x="400.000" y="500.000" type="curve" smooth="yes"/>
        <point x="400.000" y="500.000" type="line"/>
        <point x="400.000" y="230.500"/>

        <point x="179.500" y="10.000"/>
        <point x="-90.000" y="10.000" type="curve" smooth="yes"/>
        <point x="490.000" y="10.000" type="line"/>
        <point x="220.500" y="10.000"/>

        <point x="0.000" y="230.500"/>
        <point x="0.000" y="500.000" type="curve" smooth="yes"/>
        <point x="0.000" y="500.000" type="line"/>
    </contour>
  </outline>
</glyph>
<glyph name="cap" format="2">
  <advance width="0"/>
  
  <outline>
    <contour>
        <point x="0.000" y="310.000"/>

        <point x="90.000" y="400.000"/>
        <point x="200.000" y="400.000" type="curve" smooth="yes"/>
        <point x="200.000" y="400.000" type="line"/>
        <point x="310.000" y="400.000"/>

        <point x="400.000" y="310.000"/>
        <point x="400.000" y="200.000" type="curve" smooth="yes"/>
        <point x="400.000" y="200.000" type="line"/>
        <point x="400.000" y="90.000"/>

        <point x="310.000" y="0.000"/>
        <point x="200.000" y="0.000" type="curve" smooth="yes"/>
        <point x="200.000" y="0.000" type="line"/>
        <point x="90.000" y="0.000"/>

        <point x="0.000" y="90.000"/>
        <point x="0.000" y="200.000" type="curve" smooth="yes"/>
        <point x="0.000" y="200.000" type="line"/>
    </contour>
  </outline>
</glyph>
